<?xml version="1.0" encoding="utf-8"?>
<!-- Generator: Adobe Illustrator 21.0.0, SVG Export Plug-In . SVG Version: 6.00 Build 0)  -->
<svg version="1.1"
	 id="svg4217" inkscape:version="0.48.5 r10040" sodipodi:docname="Microsoft_Windows_Millenium_Edition_Logo.svg" xmlns:cc="http://creativecommons.org/ns#" xmlns:dc="http://purl.org/dc/elements/1.1/" xmlns:inkscape="http://www.inkscape.org/namespaces/inkscape" xmlns:rdf="http://www.w3.org/1999/02/22-rdf-syntax-ns#" xmlns:sodipodi="http://sodipodi.sourceforge.net/DTD/sodipodi-0.dtd" xmlns:svg="http://www.w3.org/2000/svg"
	 xmlns="http://www.w3.org/2000/svg" xmlns:xlink="http://www.w3.org/1999/xlink" x="0px" y="0px" viewBox="0 0 39.2 30"
	 style="enable-background:new 0 0 39.2 30;" xml:space="preserve">
<style type="text/css">
	.st0{fill:#FFFFFF;stroke:#FFFFFF;stroke-miterlimit:10;}
	.st1{fill:#FFFFFF;stroke:#FFFFFF;stroke-width:0.7;stroke-linecap:round;stroke-linejoin:round;}
</style>
<sodipodi:namedview  bordercolor="#666666" borderopacity="1" gridtolerance="10" guidetolerance="10" id="namedview4618" inkscape:current-layer="svg4217" inkscape:cx="103.05184" inkscape:cy="39.081636" inkscape:pageopacity="0" inkscape:pageshadow="2" inkscape:window-height="774" inkscape:window-maximized="0" inkscape:window-width="1025" inkscape:window-x="0" inkscape:window-y="25" inkscape:zoom="3.99" objecttolerance="10" pagecolor="#ffffff" showgrid="false">
	</sodipodi:namedview>
<title  id="title4219">Microsoft Windows Millenium Edition Logo</title>
<g id="g4262">
	<path id="path4264" class="st0" d="M21.7,9.7c0.3-0.3,0.6-0.5,1-0.4c0.2,0.1,0.3,0.5,0.2,0.9l-2,10.1c-0.6,2.6-0.7,4.6-0.4,6.1
		c0.3,1.4,1.1,2.1,2.3,2.3c0.7,0.1,1.5-0.2,2.5-0.9c-1,0.1-1.8-0.2-2.2-0.8c-0.4-0.6-0.6-1.6-0.6-3c0.1-2.5,0.7-5.9,1.9-10.1
		c0.7-2.3,1.1-4.1,1.1-5.3c0-1.2-0.3-2-1-2.4c-0.6-0.4-1.6,0.2-3,1.7c-1.2,1.3-2.9,3.5-4.9,6.6c0-3.8-0.2-6.7-0.4-8.5
		c-0.3-1.9-0.8-2.9-1.4-3c-1.1,0-2.2,0.7-3.3,2.1c-1.1,1.4-2.1,3.3-3.1,5.9l-0.3-8c0-1-0.4-1.5-1.2-1.4C6.4,1.5,6.1,2.3,6.1,3.7
		c-0.4,7.4-1,12.9-1.8,16.6c-0.6,2.8-0.9,5-0.8,6.5c0.2,0.9,0.5,1.4,1,1.4c0.5,0,0.9-0.4,1-1.3C7.2,20.4,9,14.6,11,9.7
		C11.5,8,12.1,7,12.8,6.9c0.5,0,0.9,0.3,1,1c0.1,0.4,0.2,1.4,0.2,2.8c0,2.8-0.3,7.7-0.8,14.5c-0.1,1.5,0.1,2.3,0.6,2.3
		c0.7,0,1.1-0.8,1.2-2.4c0.7-4.6,2.7-9.4,6-14.2C21.3,10.2,21.6,9.8,21.7,9.7z"/>
	<path id="path4266" class="st1" d="M21.7,9.7c-0.1,0.1-0.4,0.5-0.8,1.1c-3.3,4.9-5.3,9.6-6,14.2c-0.1,1.6-0.5,2.4-1.2,2.4
		c-0.6,0-0.8-0.8-0.6-2.3c0.6-6.8,0.8-11.7,0.8-14.5c0-1.4-0.1-2.4-0.2-2.8c-0.1-0.6-0.5-1-1-1C12.1,7,11.5,7.9,11,9.7
		C9,14.6,7.2,20.4,5.5,27c-0.2,0.9-0.5,1.3-1,1.3c-0.5,0-0.8-0.5-1-1.4c-0.1-1.5,0.2-3.7,0.8-6.5c0.9-3.7,1.5-9.3,1.8-16.6
		c0-1.4,0.3-2.1,0.8-2.2c0.8-0.1,1.2,0.4,1.2,1.4l0.3,8c1-2.5,2-4.5,3.1-5.9c1.1-1.4,2.2-2.1,3.3-2.1c0.6,0.1,1.1,1.1,1.4,3
		c0.3,1.9,0.4,4.7,0.4,8.5c2-3.1,3.6-5.3,4.9-6.6c1.4-1.5,2.4-2.1,3-1.7c0.7,0.4,1,1.2,1,2.4c0,1.2-0.4,3-1.1,5.3
		c-1.2,4.2-1.8,7.6-1.9,10.1c0,1.4,0.2,2.4,0.6,3c0.4,0.6,1.2,0.9,2.2,0.8c-1,0.8-1.8,1.1-2.5,0.9c-1.2-0.1-2-0.9-2.3-2.3
		c-0.4-1.4-0.2-3.5,0.4-6.1l2-10.1c0.1-0.5,0-0.8-0.2-0.9C22.4,9.3,22.1,9.4,21.7,9.7"/>
</g>
<path id="path4270" class="st0" d="M35.8,14.7c0-1-0.2-1.8-0.7-2.3c-0.5-0.5-1.2-0.8-2.1-0.9c-1.8,0-3.3,0.8-4.7,2.3
	c-1.4,1.5-2.2,3.4-2.6,5.7c-0.3,2.2,0,4.1,0.8,5.8c0.8,1.6,2,2.5,3.5,2.5c2-0.1,3.2-0.9,3.8-2.6c-1,0.7-1.9,1-2.7,1
	c-0.5,0-0.9-0.1-1.4-0.4c-0.5-0.3-0.8-0.7-1.2-1.1c-0.7-1.2-0.8-2.6-0.4-4.4c1.9-0.3,3.6-1,5.2-2.1C35,17.2,35.8,15.9,35.8,14.7z
	 M30.1,14.7c0.9-1.1,1.8-1.6,2.6-1.3c0.7,0.2,1,0.5,1.1,1c0.1,0.5-0.1,1-0.6,1.6c-0.5,0.6-1.1,1.1-1.9,1.6c-0.9,0.5-1.9,0.8-2.9,1
	C28.6,17,29.2,15.8,30.1,14.7z"/>
</svg>
