<?xml version="1.0" encoding="utf-8"?>
<!-- Generator: Adobe Illustrator 21.0.0, SVG Export Plug-In . SVG Version: 6.00 Build 0)  -->
<svg version="1.1" id="Layer_1" xmlns="http://www.w3.org/2000/svg" xmlns:xlink="http://www.w3.org/1999/xlink" x="0px" y="0px"
	 viewBox="0 0 174.2 153" style="enable-background:new 0 0 174.2 153;" xml:space="preserve">
<style type="text/css">
	.st0{fill:none;}
	.st1{fill:#83B641;}
	.st2{fill:#8AA742;}
	.st3{fill:url(#SVGID_1_);}
	.st4{fill:url(#SVGID_2_);}
	.st5{fill:url(#SVGID_3_);}
	.st6{fill:url(#SVGID_4_);}
	.st7{fill:#595E48;}
	.st8{fill:#767E47;}
	.st9{fill:url(#SVGID_5_);}
	.st10{fill:url(#SVGID_6_);}
	.st11{fill:url(#SVGID_7_);}
	.st12{fill:url(#SVGID_8_);}
	.st13{fill:url(#SVGID_9_);}
	.st14{fill:url(#SVGID_10_);}
	.st15{fill:url(#SVGID_11_);}
	.st16{fill:url(#SVGID_12_);}
	.st17{fill:#313C7E;}
	.st18{fill:#2E499E;}
	.st19{fill:url(#SVGID_13_);}
	.st20{fill:#3F87C7;}
	.st21{clip-path:url(#SVGID_15_);}
	.st22{fill:url(#SVGID_16_);}
	.st23{fill:url(#SVGID_17_);}
	.st24{fill:#D75329;}
	.st25{fill:#AB4533;}
	.st26{clip-path:url(#SVGID_19_);fill:#FAAA4F;}
	.st27{clip-path:url(#SVGID_21_);fill:#F6A34C;}
	.st28{clip-path:url(#SVGID_23_);fill:#F39D48;}
	.st29{clip-path:url(#SVGID_25_);fill:#F09745;}
	.st30{clip-path:url(#SVGID_27_);fill:#ED9142;}
	.st31{clip-path:url(#SVGID_29_);fill:#EB8C3F;}
	.st32{clip-path:url(#SVGID_31_);fill:#E8863C;}
	.st33{clip-path:url(#SVGID_33_);fill:#E68139;}
	.st34{clip-path:url(#SVGID_35_);fill:#E57B37;}
	.st35{clip-path:url(#SVGID_37_);fill:#E27634;}
	.st36{clip-path:url(#SVGID_39_);fill:#E07132;}
	.st37{clip-path:url(#SVGID_41_);fill:#DF6B30;}
	.st38{clip-path:url(#SVGID_43_);fill:#DC662E;}
	.st39{clip-path:url(#SVGID_45_);fill:#DB602C;}
	.st40{clip-path:url(#SVGID_47_);fill:#D95A2A;}
	.st41{clip-path:url(#SVGID_49_);fill:#D75329;}
	.st42{fill:url(#SVGID_50_);}
	.st43{fill:#F89C3E;}
	.st44{fill:url(#SVGID_51_);}
	.st45{fill:url(#SVGID_52_);}
	.st46{fill:#D4A52E;}
	.st47{fill:url(#SVGID_53_);}
	.st48{fill:url(#SVGID_54_);}
	.st49{fill:url(#SVGID_55_);}
	.st50{fill:#A87C3C;}
	.st51{fill:url(#SVGID_56_);}
	.st52{fill:#FFCD02;}
	.st53{fill:url(#SVGID_57_);}
	.st54{fill:url(#SVGID_58_);}
	.st55{fill:url(#SVGID_59_);}
	.st56{fill:url(#SVGID_60_);}
	.st57{fill:#C19236;}
	.st58{fill:url(#SVGID_61_);}
	.st59{fill:url(#SVGID_62_);}
	.st60{clip-path:url(#SVGID_64_);fill:url(#SVGID_65_);}
	.st61{clip-path:url(#SVGID_67_);fill:none;}
	.st62{fill:url(#SVGID_68_);}
</style>
<g id="flag">
	<g>
		<path class="st0" d="M39.7,133.1"/>
	</g>
	<g>
		<g>
			<path class="st1" d="M170.4,21.1c-33,13.6-48.9,6-63.2-3.6c0-0.1,0.1-0.4,0-0.6c14.3,9.6,30.5,17.4,63.5,3.7
				C170.5,20.8,170.5,20.9,170.4,21.1z"/>
			<polygon class="st2" points="104.7,18.2 105.9,17.3 89.8,73.3 88.5,74.3 88.5,74.2 			"/>
			
				<linearGradient id="SVGID_1_" gradientUnits="userSpaceOnUse" x1="99.2263" y1="107.6052" x2="97.7215" y2="108.0366" gradientTransform="matrix(1 0 0 -1 0 153.276)">
				<stop  offset="0" style="stop-color:#8AA742"/>
				<stop  offset="0.1" style="stop-color:#8AA742"/>
				<stop  offset="0.25" style="stop-color:#B7CA33"/>
				<stop  offset="0.4045" style="stop-color:#B7CA33"/>
				<stop  offset="1" style="stop-color:#8AA742"/>
			</linearGradient>
			<path class="st3" d="M91,73.9c-0.5-0.3-0.9-0.8-1.3-0.7l16.2-55.9c0.2-0.1,0.9-0.3,1.5,0.1L91,73.9z"/>
			<path class="st2" d="M106.1,17l-0.2,0.4l-1.2,0.9C104.8,17.8,105.7,17.2,106.1,17C106,17,106.1,17,106.1,17z"/>
			
				<linearGradient id="SVGID_2_" gradientUnits="userSpaceOnUse" x1="107.3102" y1="136.165" x2="105.8643" y2="136.2661" gradientTransform="matrix(1 0 0 -1 0 153.276)">
				<stop  offset="0" style="stop-color:#83B641"/>
				<stop  offset="0.2" style="stop-color:#B7CA33"/>
				<stop  offset="0.525" style="stop-color:#B7CA33"/>
				<stop  offset="1" style="stop-color:#8AA742"/>
			</linearGradient>
			<path class="st4" d="M107.3,17.4c-0.6-0.4-1.2-0.2-1.4-0.1c0-0.1,0.1-0.4,0.1-0.4c0.5-0.3,0.8-0.4,1.3-0.1
				C107.3,17.1,107.3,17.2,107.3,17.4z"/>
			
				<linearGradient id="SVGID_3_" gradientUnits="userSpaceOnUse" x1="170.7685" y1="132.6997" x2="171.4148" y2="131.6241" gradientTransform="matrix(1 0 0 -1 0 153.276)">
				<stop  offset="0" style="stop-color:#83B641"/>
				<stop  offset="1" style="stop-color:#595E48"/>
			</linearGradient>
			<path class="st5" d="M171.6,21.5c0,0-0.4-0.5-1.3-0.3c0.1-0.2,0.1-0.4,0.3-0.6c0.5-0.1,0.8,0.1,0.9,0.2c0.1,0.1,0.1,0.1,0.1,0.1
				C171.8,21.2,171.6,21.5,171.6,21.5z"/>
			
				<linearGradient id="SVGID_4_" gradientUnits="userSpaceOnUse" x1="172.4334" y1="131.8681" x2="172.0258" y2="131.3823" gradientTransform="matrix(1 0 0 -1 0 153.276)">
				<stop  offset="0" style="stop-color:#8AA742"/>
				<stop  offset="1" style="stop-color:#595E48"/>
			</linearGradient>
			<path class="st6" d="M171.6,20.8l1.3,1c0.1,0.4-0.1,0.7-0.1,0.7l-1.3-1.1C171.5,21.5,171.7,21.1,171.6,20.8z"/>
			<polygon class="st7" points="155.2,77.6 171.6,21.4 172.9,22.5 156.5,78.7 			"/>
			<path class="st8" d="M156.8,79.1c0-0.3-0.3-0.6-0.3-0.6l16.4-56.1c0,0,0.3,0.2,0.3,0.4L156.8,79.1z"/>
			
				<linearGradient id="SVGID_5_" gradientUnits="userSpaceOnUse" x1="173.0416" y1="131.4708" x2="173.0416" y2="130.4408" gradientTransform="matrix(1 0 0 -1 0 153.276)">
				<stop  offset="0" style="stop-color:#8AA742"/>
				<stop  offset="1" style="stop-color:#767E47"/>
			</linearGradient>
			<path class="st9" d="M173.2,22.8c0,0-0.1-0.2-0.3-0.4c0.1-0.5,0-0.6,0-0.6l0,0C172.9,21.8,173.3,22.2,173.2,22.8z"/>
			<path class="st7" d="M156.3,79.6c-8.8,4-17.2,6.1-24.9,6.7c-13.4,1.5-24.2-1.4-33-5.7c-3.4-1.6-6.6-3.4-9.3-5.2l0.1-0.1
				c2.8,1.9,5.8,3.7,9.2,5.3c9,4.1,20.2,6.8,33,5.7c7.3-0.8,15.4-3,24.4-7C155.9,79.6,156.3,79.6,156.3,79.6z"/>
			
				<linearGradient id="SVGID_6_" gradientUnits="userSpaceOnUse" x1="155.3191" y1="75.339" x2="153.9092" y2="75.4376" gradientTransform="matrix(1 0 0 -1 0 153.276)">
				<stop  offset="0" style="stop-color:#767E47"/>
				<stop  offset="1" style="stop-color:#8AA742"/>
			</linearGradient>
			<path class="st10" d="M154.5,78.6c0,0-0.6-0.6-0.5-1.4c0.8-0.2,1.4,0.3,1.4,0.3S155.2,78.3,154.5,78.6z"/>
			
				<linearGradient id="SVGID_7_" gradientUnits="userSpaceOnUse" x1="155.9823" y1="75.2127" x2="155.0723" y2="74.202" gradientTransform="matrix(1 0 0 -1 0 153.276)">
				<stop  offset="0" style="stop-color:#767E47"/>
				<stop  offset="1" style="stop-color:#595E48"/>
			</linearGradient>
			<path class="st11" d="M155.3,77.5l1.2,1c0,0-0.2,0.6-0.9,1l-1.2-1C155.1,78.2,155.3,77.5,155.3,77.5z"/>
			
				<linearGradient id="SVGID_8_" gradientUnits="userSpaceOnUse" x1="90.361" y1="73.4364" x2="154.649" y2="73.4364" gradientTransform="matrix(1 0 0 -1 0 153.276)">
				<stop  offset="0" style="stop-color:#8AA742"/>
				<stop  offset="0.4" style="stop-color:#B7CA33"/>
				<stop  offset="1" style="stop-color:#8AA742"/>
			</linearGradient>
			<path class="st12" d="M154.2,77.2c-0.1,0.8,0.5,1.4,0.5,1.4c-33,13.6-50,5.6-64.3-4.1c0.3-0.2,0.3-0.2,0.5-0.8
				C105.1,83.5,126.7,90.3,154.2,77.2z"/>
			<path class="st8" d="M89.1,75.4l1.2-0.8c14.3,9.2,31.2,17.2,64.1,3.9l1.2,1C124,93.5,103.8,85.7,89.1,75.4z"/>
			<path class="st8" d="M156.8,79.1c-0.2,0.3-0.5,0.5-0.5,0.5c0,0,0,0,0,0s-0.2,0-0.5-0.2c0.6-0.4,0.8-1.1,0.8-1.1
				S156.9,78.7,156.8,79.1z"/>
			<path class="st8" d="M89.2,75.3L89,75.5c0,0-0.8-0.4-0.5-1.3C88.6,75,89.2,75.3,89.2,75.3z"/>
			
				<linearGradient id="SVGID_9_" gradientUnits="userSpaceOnUse" x1="89.9692" y1="78.3591" x2="88.9512" y2="79.4898" gradientTransform="matrix(1 0 0 -1 0 153.276)">
				<stop  offset="0" style="stop-color:#767E47"/>
				<stop  offset="0.1" style="stop-color:#767E47"/>
				<stop  offset="0.65" style="stop-color:#83B641"/>
				<stop  offset="1" style="stop-color:#8AA742"/>
			</linearGradient>
			<path class="st13" d="M88.5,74.2l1.2-0.9c-0.1,0.9,0.7,1.3,0.7,1.3l-1.2,0.9C89.2,75.4,88.5,75.1,88.5,74.2z"/>
			
				<linearGradient id="SVGID_10_" gradientUnits="userSpaceOnUse" x1="89.9358" y1="80.189" x2="90.6767" y2="78.8525" gradientTransform="matrix(1 0 0 -1 0 153.276)">
				<stop  offset="0" style="stop-color:#8AA742"/>
				<stop  offset="0.4045" style="stop-color:#83B641"/>
				<stop  offset="0.8" style="stop-color:#8AA742"/>
				<stop  offset="1" style="stop-color:#8AA742"/>
			</linearGradient>
			<path class="st14" d="M89.7,73.2c0.4-0.1,0.8,0.3,1.3,0.7c-0.2,0.6-0.3,0.5-0.6,0.7C90.1,74.4,89.6,74,89.7,73.2z"/>
			
				<linearGradient id="SVGID_11_" gradientUnits="userSpaceOnUse" x1="163.5862" y1="103.746" x2="162.0866" y2="104.176" gradientTransform="matrix(1 0 0 -1 0 153.276)">
				<stop  offset="0" style="stop-color:#595E48"/>
				<stop  offset="1" style="stop-color:#83B641"/>
			</linearGradient>
			<path class="st15" d="M154,77.3l16.3-56.2c0.9-0.2,1.3,0.3,1.3,0.3l-16.3,56.1C155.3,77.5,154.7,77,154,77.3z"/>
		</g>
		
			<linearGradient id="SVGID_12_" gradientUnits="userSpaceOnUse" x1="159.8691" y1="95.4361" x2="100.4596" y2="112.4715" gradientTransform="matrix(1 0 0 -1 0 153.276)">
			<stop  offset="0" style="stop-color:#6FBC48"/>
			<stop  offset="0.3333" style="stop-color:#98C74F"/>
			<stop  offset="0.6666" style="stop-color:#80C046"/>
			<stop  offset="1" style="stop-color:#607D3A"/>
		</linearGradient>
		<path class="st16" d="M170.4,21.1c-33,13.6-48.9,6-63.2-3.6L91,73.9c14.3,9.7,31.5,17.6,63.2,3.5L170.4,21.1z"/>
	</g>
	<g>
		<g>
			<path class="st17" d="M1.4,132.3c0.1,0,0.3-0.1,0.3-0.1c0.2,0.2,0.4,0.3,0.4,0.3S1.7,132.6,1.4,132.3z"/>
			<path class="st17" d="M62.6,135.2c0,0,0.2,0.2,0.5,0.1l-1,0.6c-0.3,0.1-0.6-0.1-0.6-0.1L62.6,135.2z"/>
			<path class="st17" d="M1.7,132.3c0,0-0.2,0.1-0.3,0.1l-1.1-0.8l0,0c0.2,0.1,0.3,0,0.4,0L1.7,132.3z"/>
			<path class="st18" d="M63.1,134.4c0.1,0.1,0.2,0.2,0.3,0.4c-0.1,0.3-0.3,0.4-0.5,0.6c-0.2,0-0.5-0.1-0.5-0.1
				C62.7,135.1,63,134.9,63.1,134.4z"/>
			<g>
				<g>
					<rect x="16.1" y="74.6" class="st18" width="0.3" height="0"/>
				</g>
			</g>
			<polygon class="st18" points="16.1,74.6 16.3,74.6 0.2,130.8 0,130.8 			"/>
			<path class="st18" d="M0.3,131.5c-0.2-0.2-0.4-0.5-0.3-0.8l0.2-0.1c-0.1,0.4,0.2,0.7,0.4,0.8C0.7,131.5,0.5,131.6,0.3,131.5z"/>
			
				<linearGradient id="SVGID_13_" gradientUnits="userSpaceOnUse" x1="0.1871" y1="24.0853" x2="63.144" y2="24.0853" gradientTransform="matrix(1 0 0 -1 0 153.276)">
				<stop  offset="0" style="stop-color:#76A5D8"/>
				<stop  offset="0.45" style="stop-color:#DAE3EC"/>
				<stop  offset="1" style="stop-color:#3F87C7"/>
			</linearGradient>
			<path class="st19" d="M62.6,135.3c-14.3-9.6-29.2-17-61.9-3.7c-0.2-0.1-0.6-0.5-0.5-0.9c33.2-14.1,48.6-5.9,62.9,3.8
				C63,135,62.7,135.1,62.6,135.3z"/>
			<path class="st17" d="M1.6,132.2c31.5-12.3,45.6-5.6,59.9,3.6c-8.6-5.5-17.4-9.9-29.6-10c-8.2,0-17.8,2-29.9,6.7
				C2.1,132.5,1.8,132.4,1.6,132.2z"/>
			<path class="st18" d="M62.6,135.3l-1.2,0.6c-14.3-9.2-28.8-15.6-59.7-3.6l-1-0.7C33.3,118.2,48.2,125.6,62.6,135.3z"/>
			<path class="st17" d="M63.1,134.5l16.5-56.6c0.2,0.1,0.3,0.2,0.4,0.3l-16.5,56.6C63.4,134.6,63.1,134.5,63.1,134.5z"/>
			<path class="st20" d="M79.6,77.9c-14.3-9.7-30.5-16.7-63.4-3.3c0.1-0.3,0.1-0.4,0.1-0.4c33.1-13.7,49.1-6.4,63.4,3.3L79.6,77.9z"
				/>
			<g>
				<g>
					<defs>
						<path id="SVGID_14_" d="M63.1,134.5c-14.3-9.6-29.9-17.5-62.9-3.8l16-56.1c33.1-13.7,49.1-6.4,63.4,3.3L63.1,134.5z"/>
					</defs>
					<clipPath id="SVGID_15_">
						<use xlink:href="#SVGID_14_"  style="overflow:visible;"/>
					</clipPath>
					<g class="st21">
						<g>
							
								<linearGradient id="SVGID_16_" gradientUnits="userSpaceOnUse" x1="70.1612" y1="42.3195" x2="10.6819" y2="59.375" gradientTransform="matrix(1 0 0 -1 0 153.276)">
								<stop  offset="0" style="stop-color:#2E499E"/>
								<stop  offset="0.4" style="stop-color:#4496D1"/>
								<stop  offset="0.725" style="stop-color:#A5CDED"/>
								<stop  offset="1" style="stop-color:#007FC4"/>
							</linearGradient>
							<path class="st22" d="M63.1,134.6c-14.3-9.6-29.9-17.6-63-3.9l16.2-56.6c33.1-13.7,49-5.9,63.3,3.8L63.1,134.6z"/>
							<path class="st0" d="M63.1,134.6c-14.3-9.6-29.9-17.6-63-3.9l16.2-56.6c33.1-13.7,49-5.9,63.3,3.8L63.1,134.6z"/>
						</g>
					</g>
				</g>
			</g>
			<path class="st17" d="M79.7,77.5L79.7,77.5c0.2,0.2,0.3,0.4,0.3,0.7l0,0c-0.1-0.1-0.2-0.2-0.4-0.3L79.7,77.5z"/>
		</g>
		
			<linearGradient id="SVGID_17_" gradientUnits="userSpaceOnUse" x1="16.246" y1="79.064" x2="16.246" y2="78.6558" gradientTransform="matrix(1 0 0 -1 0 153.276)">
			<stop  offset="0" style="stop-color:#76A5D8"/>
			<stop  offset="1" style="stop-color:#2E499E"/>
		</linearGradient>
		<path class="st23" d="M16.3,74.6l-0.2-0.1c0.1-0.2,0.2-0.3,0.3-0.3l0,0C16.4,74.2,16.3,74.3,16.3,74.6z"/>
	</g>
	<g>
		<path class="st24" d="M81.8,68.5C66.4,57.8,47.6,51.1,19.5,65l1.1,0.8c30.6-12.5,46.6-5.7,60,3.1L81.8,68.5z"/>
		<path class="st25" d="M82.4,67.7l16.3-56.2c0.2,0.1,0.3,0.2,0.4,0.3L82.7,68.1C82.6,67.8,82.4,67.7,82.4,67.7z"/>
		<path class="st25" d="M20.7,65.8c5.2-2.1,10-3.7,14.5-4.8c1.1-0.3,2.1-0.5,3.2-0.7c1.1-0.2,2.1-0.4,3.1-0.6
			c1.6-0.2,3.1-0.4,4.7-0.6c1.3-0.1,2.5-0.2,3.8-0.2c1.2,0,2.3,0,3.5,0.1c1,0.1,2,0.1,3,0.2c0.8,0.1,1.6,0.2,2.4,0.3
			c1.7,0.3,3.3,0.6,4.9,1.1c6.3,1.8,12,4.8,17.1,8.3c0,0-0.2,0-0.2-0.1c-0.1,0-0.1,0-0.1-0.1c-7-4.4-14.5-8.3-23.8-9.4
			c-9.5-1.2-20.5,0.5-35.4,6.4c0,0-0.3,0.1-0.5,0.2C20.7,66,20.7,65.9,20.7,65.8z"/>
		<path class="st25" d="M81.8,68.5c0,0,0.2,0.2,0.5,0.1l-1,0.5c-0.3,0.1-0.6-0.1-0.6-0.1L81.8,68.5z"/>
		<path class="st25" d="M20.7,65.8c0,0,0.1,0.1,0.1,0.2c-0.1,0-0.1,0-0.4-0.1c0,0-0.1-0.1-0.1-0.1L19.3,65l-0.1-0.1
			c0.1,0,0.3,0.1,0.3,0L20.7,65.8z"/>
		<path class="st24" d="M82.4,67.7c0.1,0.1,0.2,0.1,0.3,0.4c-0.1,0.3-0.3,0.4-0.5,0.6c-0.3,0.1-0.5-0.1-0.5-0.1
			C81.9,68.3,82.2,68.2,82.4,67.7z"/>
		<path class="st24" d="M98.7,11.1L98.7,11.1c0.2,0.2,0.3,0.4,0.2,0.7l0,0c-0.1-0.1-0.2-0.2-0.3-0.3L98.7,11.1z"/>
		<path class="st24" d="M19.2,65c-0.2-0.1-0.3-0.6-0.2-0.9l0.2-0.1c-0.1,0.4,0.2,0.9,0.4,1C19.6,65,19.4,65.1,19.2,65z"/>
		<g>
			<g>
				<defs>
					<path id="SVGID_18_" d="M35.4,7.8l-0.2-0.1c0.1-0.2,0.2-0.3,0.3-0.3l0,0C35.6,7.4,35.5,7.5,35.4,7.8z"/>
				</defs>
				<clipPath id="SVGID_19_">
					<use xlink:href="#SVGID_18_"  style="overflow:visible;"/>
				</clipPath>
				<rect x="35.2" y="7.4" class="st26" width="0.3" height="0"/>
			</g>
			<g>
				<defs>
					<path id="SVGID_20_" d="M35.4,7.8l-0.2-0.1c0.1-0.2,0.2-0.3,0.3-0.3l0,0C35.6,7.4,35.5,7.5,35.4,7.8z"/>
				</defs>
				<clipPath id="SVGID_21_">
					<use xlink:href="#SVGID_20_"  style="overflow:visible;"/>
				</clipPath>
				<rect x="35.2" y="7.4" class="st27" width="0.3" height="0"/>
			</g>
			<g>
				<defs>
					<path id="SVGID_22_" d="M35.4,7.8l-0.2-0.1c0.1-0.2,0.2-0.3,0.3-0.3l0,0C35.6,7.4,35.5,7.5,35.4,7.8z"/>
				</defs>
				<clipPath id="SVGID_23_">
					<use xlink:href="#SVGID_22_"  style="overflow:visible;"/>
				</clipPath>
				<rect x="35.2" y="7.4" class="st28" width="0.3" height="0"/>
			</g>
			<g>
				<defs>
					<path id="SVGID_24_" d="M35.4,7.8l-0.2-0.1c0.1-0.2,0.2-0.3,0.3-0.3l0,0C35.6,7.4,35.5,7.5,35.4,7.8z"/>
				</defs>
				<clipPath id="SVGID_25_">
					<use xlink:href="#SVGID_24_"  style="overflow:visible;"/>
				</clipPath>
				<rect x="35.2" y="7.4" class="st29" width="0.3" height="0"/>
			</g>
			<g>
				<defs>
					<path id="SVGID_26_" d="M35.4,7.8l-0.2-0.1c0.1-0.2,0.2-0.3,0.3-0.3l0,0C35.6,7.4,35.5,7.5,35.4,7.8z"/>
				</defs>
				<clipPath id="SVGID_27_">
					<use xlink:href="#SVGID_26_"  style="overflow:visible;"/>
				</clipPath>
				<rect x="35.2" y="7.5" class="st30" width="0.3" height="0"/>
			</g>
			<g>
				<defs>
					<path id="SVGID_28_" d="M35.4,7.8l-0.2-0.1c0.1-0.2,0.2-0.3,0.3-0.3l0,0C35.6,7.4,35.5,7.5,35.4,7.8z"/>
				</defs>
				<clipPath id="SVGID_29_">
					<use xlink:href="#SVGID_28_"  style="overflow:visible;"/>
				</clipPath>
				<rect x="35.2" y="7.5" class="st31" width="0.3" height="0"/>
			</g>
			<g>
				<defs>
					<path id="SVGID_30_" d="M35.4,7.8l-0.2-0.1c0.1-0.2,0.2-0.3,0.3-0.3l0,0C35.6,7.4,35.5,7.5,35.4,7.8z"/>
				</defs>
				<clipPath id="SVGID_31_">
					<use xlink:href="#SVGID_30_"  style="overflow:visible;"/>
				</clipPath>
				<rect x="35.2" y="7.5" class="st32" width="0.3" height="0"/>
			</g>
			<g>
				<defs>
					<path id="SVGID_32_" d="M35.4,7.8l-0.2-0.1c0.1-0.2,0.2-0.3,0.3-0.3l0,0C35.6,7.4,35.5,7.5,35.4,7.8z"/>
				</defs>
				<clipPath id="SVGID_33_">
					<use xlink:href="#SVGID_32_"  style="overflow:visible;"/>
				</clipPath>
				<rect x="35.2" y="7.5" class="st33" width="0.3" height="0"/>
			</g>
			<g>
				<defs>
					<path id="SVGID_34_" d="M35.4,7.8l-0.2-0.1c0.1-0.2,0.2-0.3,0.3-0.3l0,0C35.6,7.4,35.5,7.5,35.4,7.8z"/>
				</defs>
				<clipPath id="SVGID_35_">
					<use xlink:href="#SVGID_34_"  style="overflow:visible;"/>
				</clipPath>
				<rect x="35.2" y="7.6" class="st34" width="0.3" height="0"/>
			</g>
			<g>
				<defs>
					<path id="SVGID_36_" d="M35.4,7.8l-0.2-0.1c0.1-0.2,0.2-0.3,0.3-0.3l0,0C35.6,7.4,35.5,7.5,35.4,7.8z"/>
				</defs>
				<clipPath id="SVGID_37_">
					<use xlink:href="#SVGID_36_"  style="overflow:visible;"/>
				</clipPath>
				<rect x="35.2" y="7.6" class="st35" width="0.3" height="0"/>
			</g>
			<g>
				<defs>
					<path id="SVGID_38_" d="M35.4,7.8l-0.2-0.1c0.1-0.2,0.2-0.3,0.3-0.3l0,0C35.6,7.4,35.5,7.5,35.4,7.8z"/>
				</defs>
				<clipPath id="SVGID_39_">
					<use xlink:href="#SVGID_38_"  style="overflow:visible;"/>
				</clipPath>
				<rect x="35.2" y="7.6" class="st36" width="0.3" height="0"/>
			</g>
			<g>
				<defs>
					<path id="SVGID_40_" d="M35.4,7.8l-0.2-0.1c0.1-0.2,0.2-0.3,0.3-0.3l0,0C35.6,7.4,35.5,7.5,35.4,7.8z"/>
				</defs>
				<clipPath id="SVGID_41_">
					<use xlink:href="#SVGID_40_"  style="overflow:visible;"/>
				</clipPath>
				<rect x="35.2" y="7.7" class="st37" width="0.3" height="0"/>
			</g>
			<g>
				<defs>
					<path id="SVGID_42_" d="M35.4,7.8l-0.2-0.1c0.1-0.2,0.2-0.3,0.3-0.3l0,0C35.6,7.4,35.5,7.5,35.4,7.8z"/>
				</defs>
				<clipPath id="SVGID_43_">
					<use xlink:href="#SVGID_42_"  style="overflow:visible;"/>
				</clipPath>
				<rect x="35.2" y="7.7" class="st38" width="0.3" height="0"/>
			</g>
			<g>
				<defs>
					<path id="SVGID_44_" d="M35.4,7.8l-0.2-0.1c0.1-0.2,0.2-0.3,0.3-0.3l0,0C35.6,7.4,35.5,7.5,35.4,7.8z"/>
				</defs>
				<clipPath id="SVGID_45_">
					<use xlink:href="#SVGID_44_"  style="overflow:visible;"/>
				</clipPath>
				<rect x="35.2" y="7.7" class="st39" width="0.3" height="0"/>
			</g>
			<g>
				<defs>
					<path id="SVGID_46_" d="M35.4,7.8l-0.2-0.1c0.1-0.2,0.2-0.3,0.3-0.3l0,0C35.6,7.4,35.5,7.5,35.4,7.8z"/>
				</defs>
				<clipPath id="SVGID_47_">
					<use xlink:href="#SVGID_46_"  style="overflow:visible;"/>
				</clipPath>
				<rect x="35.2" y="7.7" class="st40" width="0.3" height="0"/>
			</g>
			<g>
				<defs>
					<path id="SVGID_48_" d="M35.4,7.8l-0.2-0.1c0.1-0.2,0.2-0.3,0.3-0.3l0,0C35.6,7.4,35.5,7.5,35.4,7.8z"/>
				</defs>
				<clipPath id="SVGID_49_">
					<use xlink:href="#SVGID_48_"  style="overflow:visible;"/>
				</clipPath>
				<rect x="35.2" y="7.8" class="st41" width="0.3" height="0"/>
			</g>
		</g>
		
			<linearGradient id="SVGID_50_" gradientUnits="userSpaceOnUse" x1="19.1105" y1="90.9221" x2="82.387" y2="90.9221" gradientTransform="matrix(1 0 0 -1 0 153.276)">
			<stop  offset="0" style="stop-color:#FAAB4F"/>
			<stop  offset="0.25" style="stop-color:#FAAB4F"/>
			<stop  offset="0.475" style="stop-color:#FCC193"/>
			<stop  offset="0.525" style="stop-color:#FCC193"/>
			<stop  offset="0.75" style="stop-color:#F89C3E"/>
			<stop  offset="1" style="stop-color:#F89C3E"/>
		</linearGradient>
		<path class="st42" d="M81.8,68.5C73,62.7,64.7,58,51.7,57.6C42.1,57.8,34.8,59,19.6,65c-0.2-0.1-0.5-0.4-0.4-0.9
			c13.2-5.6,23.7-8,32.4-8c13.2,0.1,22.3,5.6,30.9,11.4C82.2,68.2,82,68.4,81.8,68.5z"/>
		<path class="st24" d="M35.3,7.7l0.2,0L19.2,64.2c0,0-0.2-0.1-0.2-0.1L35.3,7.7z"/>
		<path class="st43" d="M98.6,11.6C84.3,1.9,68.3-5.6,35.4,7.8c0.1-0.3,0.2-0.4,0.2-0.4c33.1-13.7,48.9-5.9,63.2,3.8L98.6,11.6z"/>
		
			<linearGradient id="SVGID_51_" gradientUnits="userSpaceOnUse" x1="89.1872" y1="108.7468" x2="29.6537" y2="125.8178" gradientTransform="matrix(1 0 0 -1 0 153.276)">
			<stop  offset="0" style="stop-color:#CD2B2B"/>
			<stop  offset="0.4" style="stop-color:#F2692A"/>
			<stop  offset="0.725" style="stop-color:#FCB544"/>
			<stop  offset="1" style="stop-color:#F37237"/>
		</linearGradient>
		<path class="st44" d="M82.4,67.7c-8.6-5.8-17.9-11.2-31.1-11.3c-8.7-0.1-19,2.4-32.2,7.8L35.4,7.8c33.1-13.7,48.9-5.9,63.2,3.8
			L82.4,67.7z"/>
	</g>
	<g>
		
			<linearGradient id="SVGID_52_" gradientUnits="userSpaceOnUse" x1="137.6778" y1="8.7984" x2="137.3408" y2="7.5403" gradientTransform="matrix(1 0 0 -1 0 153.276)">
			<stop  offset="0" style="stop-color:#D4A52E"/>
			<stop  offset="1" style="stop-color:#A87C3C"/>
		</linearGradient>
		<path class="st45" d="M138,145.2c-0.2,0.3-0.4,0.5-0.5,0.5c0,0,0,0,0,0s-0.3,0-0.5-0.2c0.6-0.4,0.8-1.1,0.8-1.1
			S138.1,144.8,138,145.2z"/>
		<path class="st46" d="M138,145.2c0-0.3-0.3-0.6-0.3-0.6L153.4,90c0,0,0.3,0.2,0.3,0.4L138,145.2z"/>
		
			<linearGradient id="SVGID_53_" gradientUnits="userSpaceOnUse" x1="153.5294" y1="63.9108" x2="153.5294" y2="62.8748" gradientTransform="matrix(1 0 0 -1 0 153.276)">
			<stop  offset="5.600000e-03" style="stop-color:#C19236"/>
			<stop  offset="1" style="stop-color:#D4A52E"/>
		</linearGradient>
		<path class="st47" d="M153.7,90.4c0,0-0.1-0.2-0.3-0.4c0.1-0.5,0-0.6,0-0.6l0,0C153.4,89.4,153.8,89.8,153.7,90.4z"/>
		
			<linearGradient id="SVGID_54_" gradientUnits="userSpaceOnUse" x1="151.2299" y1="65.1349" x2="151.8818" y2="64.0501" gradientTransform="matrix(1 0 0 -1 0 153.276)">
			<stop  offset="5.600000e-03" style="stop-color:#FFCD02"/>
			<stop  offset="1" style="stop-color:#A87C3C"/>
		</linearGradient>
		<path class="st48" d="M152.1,89.1c0,0-0.4-0.5-1.3-0.4c0-0.2,0.1-0.4,0.4-0.6c0.5-0.1,0.8,0.1,0.9,0.2c0.1,0.1,0.1,0.1,0.1,0.1
			C152.3,88.8,152.1,89.1,152.1,89.1z"/>
		
			<linearGradient id="SVGID_55_" gradientUnits="userSpaceOnUse" x1="152.9271" y1="64.3028" x2="152.5285" y2="63.8278" gradientTransform="matrix(1 0 0 -1 0 153.276)">
			<stop  offset="5.600000e-03" style="stop-color:#FFCD02"/>
			<stop  offset="1" style="stop-color:#A87C3C"/>
		</linearGradient>
		<path class="st49" d="M152.1,88.3l1.3,1c0.1,0.4-0.1,0.7-0.1,0.7l-1.3-1C152,89,152.2,88.6,152.1,88.3z"/>
		<polygon class="st50" points="136.3,143.6 152,89 153.4,90 137.7,144.6 137.7,144.8 		"/>
		
			<linearGradient id="SVGID_56_" gradientUnits="userSpaceOnUse" x1="136.3661" y1="9.3734" x2="134.9524" y2="9.4721" gradientTransform="matrix(1 0 0 -1 0 153.276)">
			<stop  offset="0" style="stop-color:#C19236"/>
			<stop  offset="1" style="stop-color:#FFCD02"/>
		</linearGradient>
		<path class="st51" d="M135.5,144.6c0,0-0.6-0.6-0.5-1.4c0.8-0.2,1.4,0.3,1.4,0.3S136.2,144.2,135.5,144.6z"/>
		<path class="st52" d="M150.9,88.8c-33.2,11.3-48.4,4.5-62.8-5.1c0-0.1,0.1-0.3,0-0.6c14.3,9.6,30.1,16.2,63.1,5.1
			C151,88.3,150.9,88.6,150.9,88.8z"/>
		<polygon class="st46" points="85.6,84.4 86.8,83.5 70.8,139.3 69.5,140.2 69.5,140.1 		"/>
		
			<linearGradient id="SVGID_57_" gradientUnits="userSpaceOnUse" x1="80.1715" y1="41.6419" x2="78.6944" y2="42.0655" gradientTransform="matrix(1 0 0 -1 0 153.276)">
			<stop  offset="0" style="stop-color:#D4A52E"/>
			<stop  offset="0.1" style="stop-color:#D4A52E"/>
			<stop  offset="0.2" style="stop-color:#FFC222"/>
			<stop  offset="0.35" style="stop-color:#FFC222"/>
			<stop  offset="1" style="stop-color:#D4A52E"/>
		</linearGradient>
		<path class="st53" d="M72.1,139.5c-0.5-0.3-1-0.5-1.5-0.3l16.1-55.7c0.2-0.1,0.8-0.3,1.5,0.2L72.1,139.5z"/>
		
			<linearGradient id="SVGID_58_" gradientUnits="userSpaceOnUse" x1="144.2989" y1="36.9989" x2="142.8971" y2="37.4008" gradientTransform="matrix(1 0 0 -1 0 153.276)">
			<stop  offset="0" style="stop-color:#A87C3C"/>
			<stop  offset="1" style="stop-color:#FFD200"/>
		</linearGradient>
		<path class="st54" d="M135,143.3l15.8-54.6c0,0,0.1,0,0.1-0.1c0.8-0.1,1.2,0.4,1.2,0.4l-15.7,54.5
			C136.4,143.5,135.7,143,135,143.3z"/>
		<path class="st50" d="M137.4,145.7c-32.4,13.8-53.2,5.3-67.5-4.3l0.2-0.1c14.3,9.6,36.3,17.7,66.8,4.2
			C137.1,145.7,137.4,145.7,137.4,145.7z"/>
		
			<linearGradient id="SVGID_59_" gradientUnits="userSpaceOnUse" x1="136.9547" y1="9.5279" x2="136.251" y2="7.9476" gradientTransform="matrix(1 0 0 -1 0 153.276)">
			<stop  offset="0" style="stop-color:#C19236"/>
			<stop  offset="1" style="stop-color:#D4A52E"/>
		</linearGradient>
		<path class="st55" d="M136.4,143.5l1.3,1.1c0,0-0.2,0.6-0.9,1l-1.4-1.1C136.2,144.1,136.4,143.5,136.4,143.5z"/>
		
			<linearGradient id="SVGID_60_" gradientUnits="userSpaceOnUse" x1="71.437" y1="7.6507" x2="135.694" y2="7.6507" gradientTransform="matrix(1 0 0 -1 0 153.276)">
			<stop  offset="0" style="stop-color:#D4A52E"/>
			<stop  offset="0.4" style="stop-color:#FFD200"/>
			<stop  offset="1" style="stop-color:#D4A52E"/>
		</linearGradient>
		<path class="st56" d="M135.2,143.2c-0.1,0.8,0.5,1.4,0.5,1.4c-33,13.7-50,5.5-64.3-4.2c0.3-0.2,0.4-0.3,0.5-0.9c0,0,0.2,0,0.2,0
			C87,148.5,105.9,155.7,135.2,143.2z"/>
		<path class="st57" d="M70.1,141.3l1.3-1c13.1,8.2,31.5,17.1,64.1,4.1l1.3,1.1C106.6,159,84.4,151,70.1,141.3z"/>
		<path class="st46" d="M70.2,141.4l-0.2,0.1c0,0-0.9-0.5-0.6-1.4C69.6,141,70.2,141.4,70.2,141.4z"/>
		
			<linearGradient id="SVGID_61_" gradientUnits="userSpaceOnUse" x1="70.9915" y1="12.4132" x2="69.957" y2="13.5621" gradientTransform="matrix(1 0 0 -1 0 153.276)">
			<stop  offset="0" style="stop-color:#D4A52E"/>
			<stop  offset="0.1" style="stop-color:#D4A52E"/>
			<stop  offset="0.7" style="stop-color:#FFD200"/>
			<stop  offset="1" style="stop-color:#D4A52E"/>
		</linearGradient>
		<path class="st58" d="M69.5,140.1l1.2-1c-0.1,0.9,0.8,1.2,0.8,1.2l-1.4,1C70.2,141.4,69.4,141,69.5,140.1z"/>
		
			<linearGradient id="SVGID_62_" gradientUnits="userSpaceOnUse" x1="71.0224" y1="14.3425" x2="71.7548" y2="13.0211" gradientTransform="matrix(1 0 0 -1 0 153.276)">
			<stop  offset="0" style="stop-color:#D4A52E"/>
			<stop  offset="0.4" style="stop-color:#FFC222"/>
			<stop  offset="0.8" style="stop-color:#FFCD02"/>
			<stop  offset="1" style="stop-color:#D4A52E"/>
		</linearGradient>
		<path class="st59" d="M70.7,139.1c0.4-0.2,0.9,0,1.3,0.3c-0.2,0.6-0.3,0.8-0.5,1C71.2,140.2,70.6,139.9,70.7,139.1z"/>
		<g>
			<g>
				<defs>
					<path id="SVGID_63_" d="M88.1,83.7c14.3,9.6,29.8,16.3,62.8,5l-15.7,54.6c-29,12.7-48.5,5.1-63.2-3.8L88.1,83.7z"/>
				</defs>
				<clipPath id="SVGID_64_">
					<use xlink:href="#SVGID_63_"  style="overflow:visible;"/>
				</clipPath>
				
					<linearGradient id="SVGID_65_" gradientUnits="userSpaceOnUse" x1="140.9653" y1="29.6511" x2="81.4228" y2="46.7246" gradientTransform="matrix(1 0 0 -1 0 153.276)">
					<stop  offset="0" style="stop-color:#FFC907"/>
					<stop  offset="0.1667" style="stop-color:#FFD200"/>
					<stop  offset="0.3333" style="stop-color:#FFD952"/>
					<stop  offset="0.625" style="stop-color:#FFCD02"/>
					<stop  offset="1" style="stop-color:#B77A36"/>
				</linearGradient>
				<path class="st60" d="M88.2,83.3c14.3,9.6,30.2,17.3,63.2,3.7l-16.3,56.2c-33,13.7-48.9,5.9-63.2-3.8L88.2,83.3z"/>
			</g>
			<g>
				<defs>
					<path id="SVGID_66_" d="M88.1,83.7c14.3,9.6,29.8,16.3,62.8,5l-15.7,54.6c-29,12.7-48.5,5.1-63.2-3.8L88.1,83.7z"/>
				</defs>
				<clipPath id="SVGID_67_">
					<use xlink:href="#SVGID_66_"  style="overflow:visible;"/>
				</clipPath>
				<path class="st61" d="M88.2,83.3c14.3,9.6,30.2,17.3,63.2,3.7l-16.3,56.2c-33,13.7-48.9,5.9-63.2-3.8L88.2,83.3z"/>
			</g>
		</g>
		<path class="st52" d="M86.9,83.2l-0.2,0.4l-1.2,0.9C85.7,84.1,86.6,83.4,86.9,83.2C86.9,83.2,86.9,83.2,86.9,83.2z"/>
		
			<linearGradient id="SVGID_68_" gradientUnits="userSpaceOnUse" x1="88.1877" y1="69.9074" x2="86.7164" y2="70.0103" gradientTransform="matrix(1 0 0 -1 0 153.276)">
			<stop  offset="0" style="stop-color:#FFC222"/>
			<stop  offset="0.2" style="stop-color:#FFC222"/>
			<stop  offset="0.525" style="stop-color:#FFD200"/>
			<stop  offset="1" style="stop-color:#D4A52E"/>
		</linearGradient>
		<path class="st62" d="M88.1,83.7c-0.7-0.4-1.2-0.2-1.4,0c0-0.1,0.2-0.4,0.2-0.4c0.5-0.3,0.8-0.3,1.3-0.1
			C88.2,83.3,88.2,83.5,88.1,83.7z"/>
	</g>
</g>
</svg>
